<svg width="205" height="26" viewBox="0 0 205 26" fill="none" xmlns="http://www.w3.org/2000/svg">
<g clip-path="url(#clip0_4595_10107)">
<path d="M0 25.5V0.5H25V25.5H0Z" fill="#03C75A"/>
<path d="M18.3339 7.21606H14.5767V13.4071L10.2517 7.21606H6.66602V18.7839H10.4232V12.5929L14.7482 18.7839H18.3339V7.21606Z" fill="white"/>
<path d="M32.168 17.2588V5.53565H34.068V9.76242H38.5858V5.53565H40.4858V17.266L32.168 17.2588ZM34.068 15.6106H38.5858V11.3839H34.068V15.6106ZM43.7626 21.9499V4.07495H45.6822V21.9499H43.7626Z" fill="white"/>
<path d="M64.9076 17.9357V19.5643H48.5059V17.9357H64.9076ZM50.5416 7.33218V5.66431H62.8719V7.33218H57.7648V8.5143C57.7623 8.76476 57.785 9.01486 57.8326 9.26076C57.8817 9.49805 57.9737 9.72438 58.1041 9.92862C58.2661 10.1805 58.4653 10.4063 58.6951 10.5983C59.0082 10.8667 59.3454 11.1058 59.7023 11.3125C60.0773 11.5465 60.4166 11.7518 60.7398 11.934C61.063 12.1161 61.3702 12.2911 61.6809 12.4697C61.9916 12.6483 62.3112 12.8268 62.6398 13.0054C62.9684 13.184 63.3416 13.3875 63.7559 13.6054L62.863 15.1179L61.7184 14.5072C61.3701 14.3286 61.038 14.1393 60.7201 13.9715C60.4023 13.8036 60.0933 13.6143 59.7898 13.4483C59.4862 13.2822 59.1737 13.0911 58.8505 12.8768C58.3382 12.559 57.8461 12.2094 57.3773 11.8304C57.1259 11.6368 56.9034 11.4083 56.7166 11.1518C56.5328 11.4235 56.3074 11.6645 56.0487 11.8661C55.5769 12.2495 55.0813 12.6026 54.5648 12.9233C53.9053 13.3364 53.2594 13.7209 52.6273 14.0768C51.9951 14.4328 51.31 14.8042 50.5719 15.1911L49.6416 13.6786C50.0666 13.4465 50.4648 13.2322 50.8327 13.0393C51.2005 12.8465 51.5469 12.6554 51.8701 12.4661C52.1934 12.2768 52.5041 12.0983 52.8005 11.9304C53.0969 11.7625 53.4023 11.5732 53.713 11.3786C54.0601 11.1706 54.3877 10.9315 54.6916 10.6643C54.9183 10.4658 55.1172 10.2376 55.2826 9.98573C55.4182 9.77419 55.5166 9.54111 55.5737 9.29647C55.6269 9.04825 55.6526 8.79495 55.6505 8.54111V7.35895L50.5416 7.33218Z" fill="white"/>
<path d="M69.5286 5.54817V15.4749H71.2536C72.325 15.4749 73.3625 15.4392 74.366 15.3678C75.3704 15.2966 76.3702 15.1702 77.3607 14.9892L77.575 16.6571C77.0053 16.7607 76.4696 16.8356 75.9678 16.9089C75.466 16.9821 74.9446 17.0249 74.4071 17.0642C73.8696 17.1035 73.3053 17.1285 72.7107 17.141C72.116 17.1535 71.4607 17.1607 70.7143 17.1607H67.5857V5.55353L69.5286 5.54817ZM79.1446 21.9499V4.07495H81.0643V21.9499H79.1446Z" fill="white"/>
<path d="M100.201 17.9357V19.5643H83.7988V17.9357H100.201ZM91.9988 10.8411C91.8097 11.1612 91.5633 11.4439 91.272 11.675C90.7819 12.0896 90.2601 12.4652 89.7113 12.7982C89.1411 13.1554 88.5399 13.5274 87.9078 13.9143C87.2756 14.3012 86.5518 14.7179 85.7363 15.1643L84.7863 13.6518C85.5637 13.2244 86.278 12.8238 86.9292 12.45C87.5804 12.0762 88.2262 11.6691 88.8667 11.2286C89.2517 10.9747 89.6149 10.6893 89.9524 10.375C90.2184 10.1269 90.4443 9.83891 90.622 9.52147C90.7862 9.21625 90.8973 8.88535 90.9506 8.5429C91.0135 8.12928 91.0428 7.71125 91.0381 7.2929V5.32861H92.9774V7.2929C92.9732 7.71086 92.9989 8.12859 93.0542 8.5429C93.1034 8.88997 93.2153 9.22516 93.3845 9.53215C93.5733 9.86296 93.8145 10.1609 94.0988 10.4143C94.4903 10.7628 94.9082 11.0804 95.3488 11.3643C95.9583 11.7643 96.5661 12.1393 97.172 12.4893C97.778 12.8393 98.4631 13.2203 99.2274 13.6322L98.297 15.125C97.572 14.7119 96.8673 14.3083 96.1828 13.9143C95.4982 13.5203 94.8649 13.1357 94.2828 12.7607C93.7484 12.4303 93.2371 12.064 92.7524 11.6643C92.455 11.4409 92.2044 11.1612 92.0149 10.8411H91.9988Z" fill="white"/>
<path d="M122.689 17.9357V19.5643H106.287V17.9357H122.689ZM114.487 10.8411C114.299 11.1617 114.052 11.4445 113.76 11.675C113.271 12.09 112.749 12.4656 112.2 12.7982C111.632 13.1554 111.031 13.5274 110.396 13.9143C109.762 14.3012 109.038 14.7179 108.225 15.1643L107.275 13.6518C108.051 13.2244 108.765 12.8238 109.417 12.45C110.07 12.0762 110.716 11.6691 111.355 11.2286C111.74 10.9747 112.103 10.6893 112.441 10.375C112.707 10.1274 112.933 9.83931 113.11 9.52147C113.274 9.216 113.386 8.88524 113.441 8.5429C113.502 8.12913 113.531 7.71117 113.526 7.2929V5.32861H115.466V7.2929C115.462 7.71091 115.488 8.12864 115.544 8.5429C115.592 8.89002 115.704 9.22533 115.873 9.53215C116.062 9.86296 116.303 10.1609 116.587 10.4143C116.982 10.7631 117.404 11.0807 117.848 11.3643C118.455 11.7643 119.062 12.1393 119.669 12.4893C120.276 12.8393 120.962 13.2203 121.725 13.6322L120.794 15.125C120.069 14.7119 119.364 14.3083 118.68 13.9143C117.995 13.5203 117.362 13.1357 116.78 12.7607C116.246 12.4303 115.734 12.064 115.25 11.6643C114.953 11.4405 114.702 11.1609 114.512 10.8411H114.487Z" fill="white"/>
<path d="M140.333 10.9769V12.5662H133.101V14.5822H137.967V19.0805H128.156V20.4966H138.49V22.0662H126.276V17.5483H136.087V16.1537H126.18V14.5822H131.158V12.5662H123.928V10.9769H135.753C135.818 10.6543 135.867 10.3376 135.899 10.0269C135.931 9.71618 135.96 9.41263 135.987 9.1162L126.06 9.36797L126.021 7.76083L136.063 7.6269V6.17156H126.242V4.54297H137.99V7.20013C137.99 7.67871 137.967 8.25548 137.922 8.93406C137.878 9.61263 137.803 10.2948 137.699 10.9805L140.333 10.9769Z" fill="white"/>
</g>
<defs>
<clipPath id="clip0_4595_10107">
<rect width="205" height="25" fill="white" transform="translate(0 0.5)"/>
</clipPath>
</defs>
</svg>
